<svg width="55" height="55" viewBox="0 0 55 55" fill="none" xmlns="http://www.w3.org/2000/svg">
<path d="M27.2589 51.5179C40.6568 51.5179 51.5179 40.6568 51.5179 27.2589C51.5179 13.8611 40.6568 3 27.2589 3C13.8611 3 3 13.8611 3 27.2589C3 40.6568 13.8611 51.5179 27.2589 51.5179Z" stroke="#6BBE92" stroke-width="5" stroke-miterlimit="10"/>
<path d="M27.256 27.2569H14" stroke="#6BBE92" stroke-width="5" stroke-miterlimit="10" stroke-linecap="round" stroke-linejoin="round"/>
<path d="M27 27L27 10" stroke="#6BBE92" stroke-width="5" stroke-miterlimit="10" stroke-linecap="round" stroke-linejoin="round"/>
<path d="M27.2705 30.0208C28.8038 30.0208 30.0468 28.7778 30.0468 27.2445C30.0468 25.7111 28.8038 24.4681 27.2705 24.4681C25.7372 24.4681 24.4941 25.7111 24.4941 27.2445C24.4941 28.7778 25.7372 30.0208 27.2705 30.0208Z" fill="#6BBE92" stroke="#6BBE92" stroke-width="5" stroke-miterlimit="10"/>
</svg>
